# xmcd
# 
# Track frame offsets:
#     150
#     33537
#     59491
#     72048
# 
# Disc length: 1264
# 
# Revision: 0
# Processed by: cddbd v1.5.2PL0 Copyright (c) Steve Scherf et al.
# Submitted via: fre:ac v1.0.17
# 
DISCID=3304ee04
DTITLE=Rekru-Tier Tobias Schlosser - KLARTEXT - Das Basis-Hörbuch für Network- und Vertriebseinsteiger
DYEAR=0
DGENRE=Speech
TTITLE0=CD 2 - 01
TTITLE1=CD 2 - 02
TTITLE2=CD 2 - 03
TTITLE3=CD 2 - 04
EXTD=
EXTT0=
EXTT1=
EXTT2=
EXTT3=
PLAYORDER=
